<svg width="20" height="20" viewBox="0 0 20 20" fill="none" xmlns="http://www.w3.org/2000/svg">
<rect width="20" height="20" fill="#F5F5F5"/>
<g id="2&#236;&#176;&#168; &#234;&#176;&#156;&#236;&#132;&#160;&#236;&#149;&#136;_&#236;&#181;&#156;&#236;&#162;&#133; &#236;&#153;&#128;&#236;&#157;&#180;&#236;&#150;&#180;&#237;&#148;&#132;&#235;&#160;&#136;&#236;&#158;&#132;">
<path d="M-1846 -326C-1846 -327.104 -1845.1 -328 -1844 -328H9050C9051.1 -328 9052 -327.105 9052 -326V8131C9052 8132.1 9051.1 8133 9050 8133H-1844C-1845.1 8133 -1846 8132.1 -1846 8131V-326Z" fill="white"/>
<path d="M-1844 -328V-327H9050V-328V-329H-1844V-328ZM9052 -326H9051V8131H9052H9053V-326H9052ZM9050 8133V8132H-1844V8133V8134H9050V8133ZM-1846 8131H-1845V-326H-1846H-1847V8131H-1846ZM-1844 8133V8132C-1844.55 8132 -1845 8131.55 -1845 8131H-1846H-1847C-1847 8132.66 -1845.66 8134 -1844 8134V8133ZM9052 8131H9051C9051 8131.55 9050.55 8132 9050 8132V8133V8134C9051.66 8134 9053 8132.66 9053 8131H9052ZM9050 -328V-327C9050.55 -327 9051 -326.552 9051 -326H9052H9053C9053 -327.657 9051.66 -329 9050 -329V-328ZM-1844 -328V-329C-1845.66 -329 -1847 -327.657 -1847 -326H-1846H-1845C-1845 -326.552 -1844.55 -327 -1844 -327V-328Z" fill="black" fill-opacity="0.1"/>
<g id="&#235;&#167;&#136;&#236;&#138;&#164;&#237;&#132;&#176; &#236;&#187;&#180;&#237;&#143;&#172;&#235;&#132;&#140;&#237;&#138;&#184;">
<path d="M-1734 -269C-1734 -270.105 -1733.1 -271 -1732 -271H827C828.104 -271 829 -270.105 829 -269V590C829 591.105 828.104 592 827 592H-1732C-1733.1 592 -1734 591.105 -1734 590V-269Z" fill="white"/>
<g id="&#236;&#149;&#132;&#236;&#157;&#180;&#236;&#189;&#152; &#236;&#187;&#180;&#237;&#143;&#172;&#235;&#132;&#140;&#237;&#138;&#184;">
<path d="M-23 -107C-23 -108.105 -22.1046 -109 -21 -109H152C153.105 -109 154 -108.105 154 -107V84C154 85.1046 153.105 86 152 86H-21C-22.1046 86 -23 85.1046 -23 84V-107Z" fill="white"/>
<path d="M-21 -109V-108H152V-109V-110H-21V-109ZM154 -107H153V84H154H155V-107H154ZM152 86V85H-21V86V87H152V86ZM-23 84H-22V-107H-23H-24V84H-23ZM-21 86V85C-21.5523 85 -22 84.5523 -22 84H-23H-24C-24 85.6569 -22.6569 87 -21 87V86ZM154 84H153C153 84.5523 152.552 85 152 85V86V87C153.657 87 155 85.6569 155 84H154ZM152 -109V-108C152.552 -108 153 -107.552 153 -107H154H155C155 -108.657 153.657 -110 152 -110V-109ZM-21 -109V-110C-22.6569 -110 -24 -108.657 -24 -107H-23H-22C-22 -107.552 -21.5523 -108 -21 -108V-109Z" fill="black" fill-opacity="0.1"/>
<g id="&#236;&#151;&#180;&#235;&#166;&#176; &#237;&#143;&#180;&#235;&#141;&#148; &#236;&#149;&#132;&#236;&#157;&#180;&#236;&#189;&#152;">
<path id="Vector" d="M2.72971 17C2.25404 17 1.84698 16.8288 1.50853 16.4864C1.16951 16.1434 1 15.7312 1 15.25V4.75C1 4.26875 1.16951 3.85692 1.50853 3.5145C1.84698 3.1715 2.25404 3 2.72971 3H7.20534C7.43596 3 7.65593 3.04375 7.86522 3.13125C8.07394 3.21875 8.25758 3.34271 8.41613 3.50312L9.64855 4.75H16.5674C17.0431 4.75 17.4504 4.9215 17.7894 5.2645C18.1279 5.60692 18.2971 6.01875 18.2971 6.5H4.45942C3.98375 6.5 3.57669 6.67121 3.23825 7.01363C2.89922 7.35663 2.72971 7.76875 2.72971 8.25V15.25L4.4378 9.49688C4.55311 9.11771 4.76587 8.81496 5.07606 8.58862C5.38568 8.36287 5.72788 8.25 6.10265 8.25H17.2593C17.8503 8.25 18.3153 8.48683 18.6543 8.9605C18.9927 9.43475 19.0827 9.94896 18.9241 10.5031L17.3674 15.7531C17.2521 16.1323 17.0396 16.435 16.73 16.6614C16.4198 16.8871 16.0773 17 15.7025 17H2.72971Z" fill="#18181B"/>
</g>
</g>
</g>
</g>
</svg>
