<svg width="20" height="20" viewBox="0 0 20 20" fill="none" xmlns="http://www.w3.org/2000/svg">
<rect width="20" height="20" fill="#F5F5F5"/>
<g id="2&#236;&#176;&#168; &#234;&#176;&#156;&#236;&#132;&#160;&#236;&#149;&#136;_&#236;&#181;&#156;&#236;&#162;&#133; &#236;&#153;&#128;&#236;&#157;&#180;&#236;&#150;&#180;&#237;&#148;&#132;&#235;&#160;&#136;&#236;&#158;&#132;">
<path d="M-1885 -290C-1885 -291.104 -1884.1 -292 -1883 -292H9011C9012.1 -292 9013 -291.105 9013 -290V8167C9013 8168.1 9012.1 8169 9011 8169H-1883C-1884.1 8169 -1885 8168.1 -1885 8167V-290Z" fill="white"/>
<path d="M-1883 -292V-291H9011V-292V-293H-1883V-292ZM9013 -290H9012V8167H9013H9014V-290H9013ZM9011 8169V8168H-1883V8169V8170H9011V8169ZM-1885 8167H-1884V-290H-1885H-1886V8167H-1885ZM-1883 8169V8168C-1883.55 8168 -1884 8167.55 -1884 8167H-1885H-1886C-1886 8168.66 -1884.66 8170 -1883 8170V8169ZM9013 8167H9012C9012 8167.55 9011.55 8168 9011 8168V8169V8170C9012.66 8170 9014 8168.66 9014 8167H9013ZM9011 -292V-291C9011.55 -291 9012 -290.552 9012 -290H9013H9014C9014 -291.657 9012.66 -293 9011 -293V-292ZM-1883 -292V-293C-1884.66 -293 -1886 -291.657 -1886 -290H-1885H-1884C-1884 -290.552 -1883.55 -291 -1883 -291V-292Z" fill="black" fill-opacity="0.1"/>
<g id="&#235;&#167;&#136;&#236;&#138;&#164;&#237;&#132;&#176; &#236;&#187;&#180;&#237;&#143;&#172;&#235;&#132;&#140;&#237;&#138;&#184;">
<path d="M-1773 -233C-1773 -234.105 -1772.1 -235 -1771 -235H788C789.104 -235 790 -234.105 790 -233V626C790 627.105 789.104 628 788 628H-1771C-1772.1 628 -1773 627.105 -1773 626V-233Z" fill="white"/>
<g id="&#236;&#149;&#132;&#236;&#157;&#180;&#236;&#189;&#152; &#236;&#187;&#180;&#237;&#143;&#172;&#235;&#132;&#140;&#237;&#138;&#184;">
<path d="M-62 -71C-62 -72.1046 -61.1046 -73 -60 -73H113C114.105 -73 115 -72.1046 115 -71V120C115 121.105 114.105 122 113 122H-60C-61.1046 122 -62 121.105 -62 120V-71Z" fill="white"/>
<path d="M-60 -73V-72H113V-73V-74H-60V-73ZM115 -71H114V120H115H116V-71H115ZM113 122V121H-60V122V123H113V122ZM-62 120H-61V-71H-62H-63V120H-62ZM-60 122V121C-60.5523 121 -61 120.552 -61 120H-62H-63C-63 121.657 -61.6569 123 -60 123V122ZM115 120H114C114 120.552 113.552 121 113 121V122V123C114.657 123 116 121.657 116 120H115ZM113 -73V-72C113.552 -72 114 -71.5523 114 -71H115H116C116 -72.6569 114.657 -74 113 -74V-73ZM-60 -73V-74C-61.6569 -74 -63 -72.6569 -63 -71H-62H-61C-61 -71.5523 -60.5523 -72 -60 -72V-73Z" fill="black" fill-opacity="0.1"/>
<g id="Filter_alt">
<path id="Vector 7" d="M10 5.8335L16.6667 5.8335" stroke="#18181B" stroke-width="2" stroke-linecap="round"/>
<path id="Vector 8" d="M3.33301 5.8335L6.66634 5.8335" stroke="#18181B" stroke-width="2" stroke-linecap="round"/>
<path id="Vector 11" d="M14.167 14.1665L16.667 14.1665" stroke="#18181B" stroke-width="2" stroke-linecap="round"/>
<path id="Vector 12" d="M3.33301 14.1665L9.99967 14.1665" stroke="#18181B" stroke-width="2" stroke-linecap="round"/>
<circle id="Ellipse 36" cx="8.33333" cy="5.83317" r="1.66667" transform="rotate(90 8.33333 5.83317)" stroke="#18181B" stroke-width="2" stroke-linecap="round"/>
<circle id="Ellipse 37" cx="12.5003" cy="14.1667" r="1.66667" transform="rotate(90 12.5003 14.1667)" stroke="#18181B" stroke-width="2" stroke-linecap="round"/>
</g>
</g>
</g>
</g>
</svg>
