<svg width="20" height="20" viewBox="0 0 20 20" fill="none" xmlns="http://www.w3.org/2000/svg">
<rect width="20" height="20" fill="#F5F5F5"/>
<g id="2&#236;&#176;&#168; &#234;&#176;&#156;&#236;&#132;&#160;&#236;&#149;&#136;_&#236;&#181;&#156;&#236;&#162;&#133; &#236;&#153;&#128;&#236;&#157;&#180;&#236;&#150;&#180;&#237;&#148;&#132;&#235;&#160;&#136;&#236;&#158;&#132;">
<path d="M-1885 -326C-1885 -327.104 -1884.1 -328 -1883 -328H9011C9012.1 -328 9013 -327.105 9013 -326V8131C9013 8132.1 9012.1 8133 9011 8133H-1883C-1884.1 8133 -1885 8132.1 -1885 8131V-326Z" fill="white"/>
<path d="M-1883 -328V-327H9011V-328V-329H-1883V-328ZM9013 -326H9012V8131H9013H9014V-326H9013ZM9011 8133V8132H-1883V8133V8134H9011V8133ZM-1885 8131H-1884V-326H-1885H-1886V8131H-1885ZM-1883 8133V8132C-1883.55 8132 -1884 8131.55 -1884 8131H-1885H-1886C-1886 8132.66 -1884.66 8134 -1883 8134V8133ZM9013 8131H9012C9012 8131.55 9011.55 8132 9011 8132V8133V8134C9012.66 8134 9014 8132.66 9014 8131H9013ZM9011 -328V-327C9011.55 -327 9012 -326.552 9012 -326H9013H9014C9014 -327.657 9012.66 -329 9011 -329V-328ZM-1883 -328V-329C-1884.66 -329 -1886 -327.657 -1886 -326H-1885H-1884C-1884 -326.552 -1883.55 -327 -1883 -327V-328Z" fill="black" fill-opacity="0.1"/>
<g id="&#235;&#167;&#136;&#236;&#138;&#164;&#237;&#132;&#176; &#236;&#187;&#180;&#237;&#143;&#172;&#235;&#132;&#140;&#237;&#138;&#184;">
<path d="M-1773 -269C-1773 -270.105 -1772.1 -271 -1771 -271H788C789.104 -271 790 -270.105 790 -269V590C790 591.105 789.104 592 788 592H-1771C-1772.1 592 -1773 591.105 -1773 590V-269Z" fill="white"/>
<g id="&#236;&#149;&#132;&#236;&#157;&#180;&#236;&#189;&#152; &#236;&#187;&#180;&#237;&#143;&#172;&#235;&#132;&#140;&#237;&#138;&#184;">
<path d="M-62 -107C-62 -108.105 -61.1046 -109 -60 -109H113C114.105 -109 115 -108.105 115 -107V84C115 85.1046 114.105 86 113 86H-60C-61.1046 86 -62 85.1046 -62 84V-107Z" fill="white"/>
<path d="M-60 -109V-108H113V-109V-110H-60V-109ZM115 -107H114V84H115H116V-107H115ZM113 86V85H-60V86V87H113V86ZM-62 84H-61V-107H-62H-63V84H-62ZM-60 86V85C-60.5523 85 -61 84.5523 -61 84H-62H-63C-63 85.6569 -61.6569 87 -60 87V86ZM115 84H114C114 84.5523 113.552 85 113 85V86V87C114.657 87 116 85.6569 116 84H115ZM113 -109V-108C113.552 -108 114 -107.552 114 -107H115H116C116 -108.657 114.657 -110 113 -110V-109ZM-60 -109V-110C-61.6569 -110 -63 -108.657 -63 -107H-62H-61C-61 -107.552 -60.5523 -108 -60 -108V-109Z" fill="black" fill-opacity="0.1"/>
<g id="Add circle outline" clip-path="url(#clip0_154_421)">
<path id="Vector" d="M10.0003 5.83317C9.54199 5.83317 9.16699 6.20817 9.16699 6.6665V9.1665H6.66699C6.20866 9.1665 5.83366 9.5415 5.83366 9.99984C5.83366 10.4582 6.20866 10.8332 6.66699 10.8332H9.16699V13.3332C9.16699 13.7915 9.54199 14.1665 10.0003 14.1665C10.4587 14.1665 10.8337 13.7915 10.8337 13.3332V10.8332H13.3337C13.792 10.8332 14.167 10.4582 14.167 9.99984C14.167 9.5415 13.792 9.1665 13.3337 9.1665H10.8337V6.6665C10.8337 6.20817 10.4587 5.83317 10.0003 5.83317ZM10.0003 1.6665C5.40033 1.6665 1.66699 5.39984 1.66699 9.99984C1.66699 14.5998 5.40033 18.3332 10.0003 18.3332C14.6003 18.3332 18.3337 14.5998 18.3337 9.99984C18.3337 5.39984 14.6003 1.6665 10.0003 1.6665ZM10.0003 16.6665C6.32533 16.6665 3.33366 13.6748 3.33366 9.99984C3.33366 6.32484 6.32533 3.33317 10.0003 3.33317C13.6753 3.33317 16.667 6.32484 16.667 9.99984C16.667 13.6748 13.6753 16.6665 10.0003 16.6665Z" fill="#18181B"/>
</g>
</g>
</g>
</g>
<defs>
<clipPath id="clip0_154_421">
<rect width="20" height="20" fill="white"/>
</clipPath>
</defs>
</svg>
