<svg width="20" height="20" viewBox="0 0 20 20" fill="none" xmlns="http://www.w3.org/2000/svg">
<rect width="20" height="20" fill="#F5F5F5"/>
<g id="2&#236;&#176;&#168; &#234;&#176;&#156;&#236;&#132;&#160;&#236;&#149;&#136;_&#236;&#181;&#156;&#236;&#162;&#133; &#236;&#153;&#128;&#236;&#157;&#180;&#236;&#150;&#180;&#237;&#148;&#132;&#235;&#160;&#136;&#236;&#158;&#132;">
<path d="M-1885 -360C-1885 -361.104 -1884.1 -362 -1883 -362H9011C9012.1 -362 9013 -361.105 9013 -360V8097C9013 8098.1 9012.1 8099 9011 8099H-1883C-1884.1 8099 -1885 8098.1 -1885 8097V-360Z" fill="white"/>
<path d="M-1883 -362V-361H9011V-362V-363H-1883V-362ZM9013 -360H9012V8097H9013H9014V-360H9013ZM9011 8099V8098H-1883V8099V8100H9011V8099ZM-1885 8097H-1884V-360H-1885H-1886V8097H-1885ZM-1883 8099V8098C-1883.55 8098 -1884 8097.55 -1884 8097H-1885H-1886C-1886 8098.66 -1884.66 8100 -1883 8100V8099ZM9013 8097H9012C9012 8097.55 9011.55 8098 9011 8098V8099V8100C9012.66 8100 9014 8098.66 9014 8097H9013ZM9011 -362V-361C9011.55 -361 9012 -360.552 9012 -360H9013H9014C9014 -361.657 9012.66 -363 9011 -363V-362ZM-1883 -362V-363C-1884.66 -363 -1886 -361.657 -1886 -360H-1885H-1884C-1884 -360.552 -1883.55 -361 -1883 -361V-362Z" fill="black" fill-opacity="0.1"/>
<g id="&#235;&#167;&#136;&#236;&#138;&#164;&#237;&#132;&#176; &#236;&#187;&#180;&#237;&#143;&#172;&#235;&#132;&#140;&#237;&#138;&#184;">
<path d="M-1773 -303C-1773 -304.105 -1772.1 -305 -1771 -305H788C789.104 -305 790 -304.105 790 -303V556C790 557.105 789.104 558 788 558H-1771C-1772.1 558 -1773 557.105 -1773 556V-303Z" fill="white"/>
<g id="&#236;&#149;&#132;&#236;&#157;&#180;&#236;&#189;&#152; &#236;&#187;&#180;&#237;&#143;&#172;&#235;&#132;&#140;&#237;&#138;&#184;">
<path d="M-62 -141C-62 -142.105 -61.1046 -143 -60 -143H113C114.105 -143 115 -142.105 115 -141V50C115 51.1046 114.105 52 113 52H-60C-61.1046 52 -62 51.1046 -62 50V-141Z" fill="white"/>
<path d="M-60 -143V-142H113V-143V-144H-60V-143ZM115 -141H114V50H115H116V-141H115ZM113 52V51H-60V52V53H113V52ZM-62 50H-61V-141H-62H-63V50H-62ZM-60 52V51C-60.5523 51 -61 50.5523 -61 50H-62H-63C-63 51.6569 -61.6569 53 -60 53V52ZM115 50H114C114 50.5523 113.552 51 113 51V52V53C114.657 53 116 51.6569 116 50H115ZM113 -143V-142C113.552 -142 114 -141.552 114 -141H115H116C116 -142.657 114.657 -144 113 -144V-143ZM-60 -143V-144C-61.6569 -144 -63 -142.657 -63 -141H-62H-61C-61 -141.552 -60.5523 -142 -60 -142V-143Z" fill="black" fill-opacity="0.1"/>
<g id="Delete" clip-path="url(#clip0_154_421)">
<path id="Vector" d="M5.00033 15.8333C5.00033 16.75 5.75033 17.5 6.66699 17.5H13.3337C14.2503 17.5 15.0003 16.75 15.0003 15.8333V5.83333H5.00033V15.8333ZM15.8337 3.33333H12.917L12.0837 2.5H7.91699L7.08366 3.33333H4.16699V5H15.8337V3.33333Z" fill="#18181B"/>
</g>
</g>
</g>
</g>
<defs>
<clipPath id="clip0_154_421">
<rect width="20" height="20" fill="white"/>
</clipPath>
</defs>
</svg>
