<svg preserveAspectRatio="none" width="100%" height="100%" overflow="visible" style="display: block;" viewBox="0 0 16 16" fill="none" xmlns="http://www.w3.org/2000/svg">
<g id="file-description 1" clip-path="url(#clip0_0_35)">
<g id="Vector">
</g>
<path id="Vector_2" d="M8 1.33333L8.078 1.338C8.22681 1.35555 8.36537 1.42272 8.47133 1.52867C8.57728 1.63463 8.64445 1.77319 8.662 1.922L8.66667 2V4.66667L8.67 4.76667C8.69386 5.08411 8.8305 5.38255 9.05524 5.60802C9.27997 5.83349 9.57796 5.97111 9.89533 5.996L10 6H12.6667L12.7447 6.00467C12.8935 6.02222 13.032 6.08939 13.138 6.19534C13.2439 6.3013 13.3111 6.43986 13.3287 6.58867L13.3333 6.66667V12.6667C13.3334 13.1768 13.1384 13.6677 12.7885 14.0388C12.4385 14.41 11.9599 14.6334 11.4507 14.6633L11.3333 14.6667H4.66667C4.15653 14.6667 3.66566 14.4718 3.29449 14.1218C2.92333 13.7718 2.69993 13.2933 2.67 12.784L2.66667 12.6667V3.33333C2.66664 2.82319 2.86155 2.33232 3.21152 1.96116C3.56149 1.59 4.04007 1.36659 4.54933 1.33667L4.66667 1.33333H8ZM10 10.6667H6C5.82319 10.6667 5.65362 10.7369 5.5286 10.8619C5.40357 10.987 5.33333 11.1565 5.33333 11.3333C5.33333 11.5101 5.40357 11.6797 5.5286 11.8047C5.65362 11.9298 5.82319 12 6 12H10C10.1768 12 10.3464 11.9298 10.4714 11.8047C10.5964 11.6797 10.6667 11.5101 10.6667 11.3333C10.6667 11.1565 10.5964 10.987 10.4714 10.8619C10.3464 10.7369 10.1768 10.6667 10 10.6667ZM10 8H6C5.82319 8 5.65362 8.07024 5.5286 8.19526C5.40357 8.32029 5.33333 8.48986 5.33333 8.66667C5.33333 8.84348 5.40357 9.01305 5.5286 9.13807C5.65362 9.2631 5.82319 9.33333 6 9.33333H10C10.1768 9.33333 10.3464 9.2631 10.4714 9.13807C10.5964 9.01305 10.6667 8.84348 10.6667 8.66667C10.6667 8.48986 10.5964 8.32029 10.4714 8.19526C10.3464 8.07024 10.1768 8 10 8Z" fill="var(--fill-0, #18181B)"/>
<path id="Vector_3" d="M12.6667 4.66667H10L9.99933 1.99933L12.6667 4.66667Z" fill="var(--fill-0, #18181B)"/>
</g>
<defs>
<clipPath id="clip0_0_35">
<rect width="16" height="16" fill="white"/>
</clipPath>
</defs>
</svg>
