<svg preserveAspectRatio="none" width="100%" height="100%" overflow="visible" style="display: block;" viewBox="0 0 9.0408 5.02267" fill="none" xmlns="http://www.w3.org/2000/svg">
<path id="Vector" d="M8.39391 0C8.94412 0 9.2315 0.619054 8.89956 1.01899L8.85048 1.07173L4.97577 4.8388C4.86457 4.9469 4.71662 5.01183 4.55968 5.02143C4.40274 5.03102 4.24759 4.98461 4.12334 4.89091L4.06263 4.8388L0.187924 1.07173L0.134323 1.01271L0.0994511 0.964369L0.0645787 0.904095L0.0536003 0.881493L0.0361641 0.839428L0.0154989 0.771621L0.00904095 0.738344L0.00258326 0.700674L0 0.664887V0.590801L0.003229 0.554387L0.00904095 0.516716L0.0154989 0.484068L0.0361641 0.416261L0.0536003 0.374195L0.0988053 0.29132L0.140781 0.234813L0.187924 0.183958L0.248627 0.131847L0.298353 0.0979438L0.360348 0.0640403L0.383596 0.0533668L0.426864 0.0364147L0.496609 0.016324L0.530835 0.0100454L0.569582 0.00376679L0.606392 0.0012556L8.39391 0Z" fill="var(--fill-0, white)"/>
</svg>
