<svg preserveAspectRatio="none" width="100%" height="100%" overflow="visible" style="display: block;" viewBox="0 0 16 16" fill="none" xmlns="http://www.w3.org/2000/svg">
<g id="send 1" clip-path="url(#clip0_0_32)">
<g id="Vector">
</g>
<path id="Vector_2" d="M13.8667 1.49639L9.77376 12.8277C9.69519 12.9987 9.56916 13.1436 9.41065 13.2451C9.25214 13.3466 9.06782 13.4005 8.87959 13.4003C8.69491 13.401 8.51382 13.3492 8.35735 13.2511C8.20088 13.153 8.07543 13.0126 7.99556 12.8461L6.16916 9.19389L13.8667 1.49639ZM12.97 0.599679L5.27182 8.29718L1.63932 6.48093C1.46837 6.40241 1.32354 6.27648 1.22204 6.11809C1.12053 5.9597 1.06661 5.77551 1.06667 5.58739C1.06667 5.20309 1.29053 4.85366 1.68878 4.67419L12.97 0.599679Z" fill="var(--fill-0, #18181B)"/>
</g>
<defs>
<clipPath id="clip0_0_32">
<rect width="16" height="16" fill="white"/>
</clipPath>
</defs>
</svg>
