<svg width="20" height="20" viewBox="0 0 20 20" fill="none" xmlns="http://www.w3.org/2000/svg">
<rect width="20" height="20" fill="#F5F5F5"/>
<g id="2&#236;&#176;&#168; &#234;&#176;&#156;&#236;&#132;&#160;&#236;&#149;&#136;_&#236;&#181;&#156;&#236;&#162;&#133; &#236;&#153;&#128;&#236;&#157;&#180;&#236;&#150;&#180;&#237;&#148;&#132;&#235;&#160;&#136;&#236;&#158;&#132;">
<path d="M-1846 -249C-1846 -250.104 -1845.1 -251 -1844 -251H9050C9051.1 -251 9052 -250.105 9052 -249V8208C9052 8209.1 9051.1 8210 9050 8210H-1844C-1845.1 8210 -1846 8209.1 -1846 8208V-249Z" fill="white"/>
<path d="M-1844 -251V-250H9050V-251V-252H-1844V-251ZM9052 -249H9051V8208H9052H9053V-249H9052ZM9050 8210V8209H-1844V8210V8211H9050V8210ZM-1846 8208H-1845V-249H-1846H-1847V8208H-1846ZM-1844 8210V8209C-1844.55 8209 -1845 8208.55 -1845 8208H-1846H-1847C-1847 8209.66 -1845.66 8211 -1844 8211V8210ZM9052 8208H9051C9051 8208.55 9050.55 8209 9050 8209V8210V8211C9051.66 8211 9053 8209.66 9053 8208H9052ZM9050 -251V-250C9050.55 -250 9051 -249.552 9051 -249H9052H9053C9053 -250.657 9051.66 -252 9050 -252V-251ZM-1844 -251V-252C-1845.66 -252 -1847 -250.657 -1847 -249H-1846H-1845C-1845 -249.552 -1844.55 -250 -1844 -250V-251Z" fill="black" fill-opacity="0.1"/>
<g id="&#235;&#167;&#136;&#236;&#138;&#164;&#237;&#132;&#176; &#236;&#187;&#180;&#237;&#143;&#172;&#235;&#132;&#140;&#237;&#138;&#184;">
<path d="M-1734 -192C-1734 -193.105 -1733.1 -194 -1732 -194H827C828.104 -194 829 -193.105 829 -192V667C829 668.105 828.104 669 827 669H-1732C-1733.1 669 -1734 668.105 -1734 667V-192Z" fill="white"/>
<g id="&#236;&#149;&#132;&#236;&#157;&#180;&#236;&#189;&#152; &#236;&#187;&#180;&#237;&#143;&#172;&#235;&#132;&#140;&#237;&#138;&#184;">
<path d="M-23 -30C-23 -31.1046 -22.1046 -32 -21 -32H152C153.105 -32 154 -31.1046 154 -30V161C154 162.105 153.105 163 152 163H-21C-22.1046 163 -23 162.105 -23 161V-30Z" fill="white"/>
<path d="M-21 -32V-31H152V-32V-33H-21V-32ZM154 -30H153V161H154H155V-30H154ZM152 163V162H-21V163V164H152V163ZM-23 161H-22V-30H-23H-24V161H-23ZM-21 163V162C-21.5523 162 -22 161.552 -22 161H-23H-24C-24 162.657 -22.6569 164 -21 164V163ZM154 161H153C153 161.552 152.552 162 152 162V163V164C153.657 164 155 162.657 155 161H154ZM152 -32V-31C152.552 -31 153 -30.5523 153 -30H154H155C155 -31.6569 153.657 -33 152 -33V-32ZM-21 -32V-33C-22.6569 -33 -24 -31.6569 -24 -30H-23H-22C-22 -30.5523 -21.5523 -31 -21 -31V-32Z" fill="black" fill-opacity="0.1"/>
<g id="&#236;&#160;&#132;&#236;&#178;&#180;&#235;&#179;&#180;&#234;&#184;&#176; &#236;&#149;&#132;&#236;&#157;&#180;&#236;&#189;&#152;" clip-path="url(#clip0_154_421)">
<path id="Vector" d="M7.5 2.5C7.94203 2.5 8.36595 2.67559 8.67851 2.98816C8.99107 3.30072 9.16667 3.72464 9.16667 4.16667V7.5C9.16667 7.94203 8.99107 8.36595 8.67851 8.67851C8.36595 8.99107 7.94203 9.16667 7.5 9.16667H4.16667C3.72464 9.16667 3.30072 8.99107 2.98816 8.67851C2.67559 8.36595 2.5 7.94203 2.5 7.5V4.16667C2.5 3.72464 2.67559 3.30072 2.98816 2.98816C3.30072 2.67559 3.72464 2.5 4.16667 2.5H7.5Z" fill="#18181B"/>
<path id="Vector_2" d="M15.833 2.5C16.275 2.5 16.699 2.67559 17.0115 2.98816C17.3241 3.30072 17.4997 3.72464 17.4997 4.16667V7.5C17.4997 7.94203 17.3241 8.36595 17.0115 8.67851C16.699 8.99107 16.275 9.16667 15.833 9.16667H12.4997C12.0576 9.16667 11.6337 8.99107 11.3212 8.67851C11.0086 8.36595 10.833 7.94203 10.833 7.5V4.16667C10.833 3.72464 11.0086 3.30072 11.3212 2.98816C11.6337 2.67559 12.0576 2.5 12.4997 2.5H15.833Z" fill="#18181B"/>
<path id="Vector_3" d="M7.5 10.8335C7.94203 10.8335 8.36595 11.0091 8.67851 11.3217C8.99107 11.6342 9.16667 12.0581 9.16667 12.5002V15.8335C9.16667 16.2755 8.99107 16.6994 8.67851 17.012C8.36595 17.3246 7.94203 17.5002 7.5 17.5002H4.16667C3.72464 17.5002 3.30072 17.3246 2.98816 17.012C2.67559 16.6994 2.5 16.2755 2.5 15.8335V12.5002C2.5 12.0581 2.67559 11.6342 2.98816 11.3217C3.30072 11.0091 3.72464 10.8335 4.16667 10.8335H7.5Z" fill="#18181B"/>
<path id="Vector_4" d="M15.833 10.8335C16.275 10.8335 16.699 11.0091 17.0115 11.3217C17.3241 11.6342 17.4997 12.0581 17.4997 12.5002V15.8335C17.4997 16.2755 17.3241 16.6994 17.0115 17.012C16.699 17.3246 16.275 17.5002 15.833 17.5002H12.4997C12.0576 17.5002 11.6337 17.3246 11.3212 17.012C11.0086 16.6994 10.833 16.2755 10.833 15.8335V12.5002C10.833 12.0581 11.0086 11.6342 11.3212 11.3217C11.6337 11.0091 12.0576 10.8335 12.4997 10.8335H15.833Z" fill="#18181B"/>
</g>
</g>
</g>
</g>
<defs>
<clipPath id="clip0_154_421">
<rect width="20" height="20" fill="white"/>
</clipPath>
</defs>
</svg>
