<svg width="16" height="16" viewBox="0 0 16 16" fill="none" xmlns="http://www.w3.org/2000/svg">
<rect width="16" height="16" fill="#F5F5F5"/>
<g id="2&#236;&#176;&#168; &#234;&#176;&#156;&#236;&#132;&#160;&#236;&#149;&#136;_&#236;&#181;&#156;&#236;&#162;&#133; &#236;&#153;&#128;&#236;&#157;&#180;&#236;&#150;&#180;&#237;&#148;&#132;&#235;&#160;&#136;&#236;&#158;&#132;">
<path d="M-4391 -1121.5C-4391 -1122.6 -4390.1 -1123.5 -4389 -1123.5H6505C6506.1 -1123.5 6507 -1122.6 6507 -1121.5V7335.5C6507 7336.6 6506.1 7337.5 6505 7337.5H-4389C-4390.1 7337.5 -4391 7336.6 -4391 7335.5V-1121.5Z" fill="white"/>
<path d="M-4389 -1123.5V-1122.5H6505V-1123.5V-1124.5H-4389V-1123.5ZM6507 -1121.5H6506V7335.5H6507H6508V-1121.5H6507ZM6505 7337.5V7336.5H-4389V7337.5V7338.5H6505V7337.5ZM-4391 7335.5H-4390V-1121.5H-4391H-4392V7335.5H-4391ZM-4389 7337.5V7336.5C-4389.55 7336.5 -4390 7336.05 -4390 7335.5H-4391H-4392C-4392 7337.16 -4390.66 7338.5 -4389 7338.5V7337.5ZM6507 7335.5H6506C6506 7336.05 6505.55 7336.5 6505 7336.5V7337.5V7338.5C6506.66 7338.5 6508 7337.16 6508 7335.5H6507ZM6505 -1123.5V-1122.5C6505.55 -1122.5 6506 -1122.05 6506 -1121.5H6507H6508C6508 -1123.16 6506.66 -1124.5 6505 -1124.5V-1123.5ZM-4389 -1123.5V-1124.5C-4390.66 -1124.5 -4392 -1123.16 -4392 -1121.5H-4391H-4390C-4390 -1122.05 -4389.55 -1122.5 -4389 -1122.5V-1123.5Z" fill="black" fill-opacity="0.1"/>
<g id="&#235;&#169;&#148;&#236;&#157;&#184; &#237;&#153;&#136;">
<path d="M-1264 -122.5C-1264 -123.605 -1263.1 -124.5 -1262 -124.5H1856C1857.1 -124.5 1858 -123.605 1858 -122.5V5380.5C1858 5381.6 1857.1 5382.5 1856 5382.5H-1262C-1263.1 5382.5 -1264 5381.6 -1264 5380.5V-122.5Z" fill="white"/>
<path d="M-1262 -124.5V-123.5H1856V-124.5V-125.5H-1262V-124.5ZM1858 -122.5H1857V5380.5H1858H1859V-122.5H1858ZM1856 5382.5V5381.5H-1262V5382.5V5383.5H1856V5382.5ZM-1264 5380.5H-1263V-122.5H-1264H-1265V5380.5H-1264ZM-1262 5382.5V5381.5C-1262.55 5381.5 -1263 5381.05 -1263 5380.5H-1264H-1265C-1265 5382.16 -1263.66 5383.5 -1262 5383.5V5382.5ZM1858 5380.5H1857C1857 5381.05 1856.55 5381.5 1856 5381.5V5382.5V5383.5C1857.66 5383.5 1859 5382.16 1859 5380.5H1858ZM1856 -124.5V-123.5C1856.55 -123.5 1857 -123.052 1857 -122.5H1858H1859C1859 -124.157 1857.66 -125.5 1856 -125.5V-124.5ZM-1262 -124.5V-125.5C-1263.66 -125.5 -1265 -124.157 -1265 -122.5H-1264H-1263C-1263 -123.052 -1262.55 -123.5 -1262 -123.5V-124.5Z" fill="black" fill-opacity="0.1"/>
<g id="&#235;&#147;&#177;&#235;&#161;&#157;&#235;&#144;&#156; &#236;&#177;&#132;&#236;&#154;&#169;&#234;&#179;&#181;&#234;&#179;&#160;&#234;&#176;&#128; 0&#234;&#176;&#156;&#236;&#157;&#188; &#236;&#139;&#156;">
<g id="&#235;&#169;&#148;&#236;&#157;&#184; &#237;&#153;&#148;&#235;&#169;&#180;">
<g id="&#237;&#151;&#164;&#235;&#141;&#148; &#236;&#152;&#129;&#236;&#151;&#173;">
<rect width="1200" height="280" transform="translate(-1164 -24.5)" fill="white"/>
<g id="Frame 141">
<g id="Frame 140">
<g id="Settings" clip-path="url(#clip0_154_421)">
<path id="Vector" d="M12.9998 8.00016C12.9998 7.84683 12.9931 7.70016 12.9798 7.54683L14.2198 6.60683C14.4864 6.40683 14.5598 6.0335 14.3931 5.74016L13.1464 3.58683C12.9798 3.2935 12.6198 3.1735 12.3131 3.30683L10.8798 3.9135C10.6331 3.74016 10.3731 3.58683 10.0998 3.46016L9.90644 1.92016C9.86644 1.58683 9.57978 1.3335 9.24644 1.3335H6.75978C6.41978 1.3335 6.13311 1.58683 6.09311 1.92016L5.89978 3.46016C5.62644 3.58683 5.36644 3.74016 5.11978 3.9135L3.68644 3.30683C3.37978 3.1735 3.01978 3.2935 2.85311 3.58683L1.60644 5.74683C1.43978 6.04016 1.51311 6.40683 1.77978 6.6135L3.01978 7.5535C3.00644 7.70016 2.99978 7.84683 2.99978 8.00016C2.99978 8.1535 3.00644 8.30016 3.01978 8.4535L1.77978 9.3935C1.51311 9.5935 1.43978 9.96683 1.60644 10.2602L2.85311 12.4135C3.01978 12.7068 3.37978 12.8268 3.68644 12.6935L5.11978 12.0868C5.36644 12.2602 5.62644 12.4135 5.89978 12.5402L6.09311 14.0802C6.13311 14.4135 6.41978 14.6668 6.75311 14.6668H9.23978C9.57311 14.6668 9.85978 14.4135 9.89978 14.0802L10.0931 12.5402C10.3664 12.4135 10.6264 12.2602 10.8731 12.0868L12.3064 12.6935C12.6131 12.8268 12.9731 12.7068 13.1398 12.4135L14.3864 10.2602C14.5531 9.96683 14.4798 9.60016 14.2131 9.3935L12.9731 8.4535C12.9931 8.30016 12.9998 8.1535 12.9998 8.00016ZM8.02644 10.3335C6.73978 10.3335 5.69311 9.28683 5.69311 8.00016C5.69311 6.7135 6.73978 5.66683 8.02644 5.66683C9.31311 5.66683 10.3598 6.7135 10.3598 8.00016C10.3598 9.28683 9.31311 10.3335 8.02644 10.3335Z" fill="black"/>
</g>
</g>
</g>
</g>
</g>
</g>
</g>
</g>
<defs>
<clipPath id="clip0_154_421">
<rect width="16" height="16" fill="white"/>
</clipPath>
</defs>
</svg>
