<svg preserveAspectRatio="none" width="100%" height="100%" overflow="visible" style="display: block;" viewBox="0 0 16 16" fill="none" xmlns="http://www.w3.org/2000/svg">
<g id="building-svgrepo-com 1">
<path id="Vector" fill-rule="evenodd" clip-rule="evenodd" d="M5.95611 1.33333C5.36512 1.3333 4.85591 1.33327 4.44814 1.3881C4.01113 1.44685 3.59223 1.57935 3.25245 1.91912C2.91268 2.2589 2.78018 2.6778 2.72143 3.11481C2.6666 3.52258 2.66663 4.03179 2.66667 4.62278V13.3333H2C1.63181 13.3333 1.33333 13.6318 1.33333 14C1.33333 14.3682 1.63181 14.6667 2 14.6667H14C14.3682 14.6667 14.6667 14.3682 14.6667 14C14.6667 13.6318 14.3682 13.3333 14 13.3333H13.3333V4.62278C13.3334 4.03179 13.3334 3.52258 13.2786 3.11481C13.2198 2.6778 13.0873 2.2589 12.7475 1.91912C12.4078 1.57935 11.9889 1.44685 11.5519 1.3881C11.1441 1.33327 10.6349 1.3333 10.0439 1.33333H5.95611ZM7.33333 5.33333C7.33333 5.70152 7.03487 6 6.66667 6H6C5.63181 6 5.33333 5.70152 5.33333 5.33333C5.33333 4.96515 5.63181 4.66667 6 4.66667H6.66667C7.03487 4.66667 7.33333 4.96515 7.33333 5.33333ZM6.66667 8.66667C7.03487 8.66667 7.33333 8.3682 7.33333 8C7.33333 7.6318 7.03487 7.33333 6.66667 7.33333H6C5.63181 7.33333 5.33333 7.6318 5.33333 8C5.33333 8.3682 5.63181 8.66667 6 8.66667H6.66667ZM7.33333 10.6667C7.33333 11.0349 7.03487 11.3333 6.66667 11.3333H6C5.63181 11.3333 5.33333 11.0349 5.33333 10.6667C5.33333 10.2985 5.63181 10 6 10H6.66667C7.03487 10 7.33333 10.2985 7.33333 10.6667ZM10 6C10.3682 6 10.6667 5.70152 10.6667 5.33333C10.6667 4.96515 10.3682 4.66667 10 4.66667H9.33333C8.96513 4.66667 8.66667 4.96515 8.66667 5.33333C8.66667 5.70152 8.96513 6 9.33333 6H10ZM10.6667 8C10.6667 8.3682 10.3682 8.66667 10 8.66667H9.33333C8.96513 8.66667 8.66667 8.3682 8.66667 8C8.66667 7.6318 8.96513 7.33333 9.33333 7.33333H10C10.3682 7.33333 10.6667 7.6318 10.6667 8ZM10 11.3333C10.3682 11.3333 10.6667 11.0349 10.6667 10.6667C10.6667 10.2985 10.3682 10 10 10H9.33333C8.96513 10 8.66667 10.2985 8.66667 10.6667C8.66667 11.0349 8.96513 11.3333 9.33333 11.3333H10Z" fill="var(--fill-0, #18181B)"/>
</g>
</svg>
