<svg preserveAspectRatio="none" width="100%" height="100%" overflow="visible" style="display: block;" viewBox="0 0 16 16" fill="none" xmlns="http://www.w3.org/2000/svg">
<g id="sparkles-2 1" clip-path="url(#clip0_0_56)">
<g id="Vector">
</g>
<path id="Vector_2" d="M11.976 1.822C12.08 2.19733 12.184 2.48867 12.2987 2.724C12.5267 3.19733 12.804 3.474 13.2787 3.702C13.514 3.81533 13.8053 3.91933 14.18 4.02467C14.8333 4.20867 14.8267 5.13667 14.1713 5.31133C13.8649 5.39244 13.566 5.49972 13.278 5.632C12.8047 5.86 12.5267 6.13667 12.3027 6.60067C12.1679 6.89079 12.0594 7.19245 11.9787 7.502C11.8067 8.16067 10.8733 8.16867 10.6907 7.512C10.5867 7.13533 10.4827 6.844 10.368 6.60933C10.14 6.136 9.86267 5.86 9.396 5.636C9.10137 5.4983 8.79476 5.38784 8.48 5.306C8.46634 5.30262 8.45296 5.29816 8.44 5.29267L8.41067 5.28133L8.38067 5.268L8.348 5.25133L8.32467 5.238C8.31331 5.23212 8.3024 5.22544 8.292 5.218L8.27067 5.20267L8.242 5.18L8.22 5.16133L8.196 5.138L8.17333 5.11467L8.15467 5.09267L8.13133 5.064L8.11667 5.04267C8.10877 5.03231 8.10164 5.02139 8.09533 5.01L8.082 4.98667L8.06533 4.95333L8.052 4.924L8.04067 4.89533C8.03517 4.88237 8.03072 4.869 8.02733 4.85533L8.02067 4.83267C8.01405 4.81139 8.00958 4.7895 8.00733 4.76733L8.00333 4.724L8 4.70067V4.66733C7.99865 4.64843 7.99932 4.62943 8.002 4.61067C8.00294 4.58977 8.00584 4.56902 8.01067 4.54867C8.01356 4.52528 8.01892 4.50226 8.02667 4.48C8.03005 4.46634 8.03451 4.45296 8.04 4.44L8.05133 4.41067L8.06467 4.38067L8.08133 4.348L8.09467 4.32467C8.10054 4.31331 8.10723 4.3024 8.11467 4.292L8.13 4.27067L8.15267 4.242L8.17133 4.22L8.19467 4.196L8.218 4.17333C8.22467 4.16667 8.232 4.16044 8.24 4.15467L8.26867 4.13133L8.29 4.11667C8.30035 4.10877 8.31127 4.10164 8.32267 4.09533L8.346 4.082L8.37933 4.06533L8.40867 4.052L8.43733 4.04067C8.45029 4.03517 8.46367 4.03071 8.47733 4.02733L8.49533 4.022C8.8015 3.94107 9.10015 3.83401 9.388 3.702C9.86133 3.474 10.1393 3.19733 10.368 2.72467C10.4813 2.48867 10.586 2.19667 10.69 1.82133C10.8713 1.17067 11.7947 1.17067 11.9753 1.82133" fill="var(--fill-0, #18181B)"/>
<path id="Vector_3" d="M7.31 4.49133C7.40733 4.84733 7.51911 5.19711 7.64533 5.54067C8.216 7.06067 8.942 7.78267 10.4653 8.354C10.78 8.47178 11.1291 8.58422 11.5127 8.69133C12.1633 8.87267 12.162 9.79533 11.5113 9.976C11.1567 10.0742 10.8082 10.1862 10.466 10.312C8.94067 10.884 8.21533 11.6053 7.64667 13.1227C7.51918 13.4685 7.40685 13.8197 7.31 14.1753C7.13133 14.8307 6.202 14.8307 6.02333 14.1753C5.92683 13.8209 5.81494 13.4707 5.688 13.126C5.11733 11.6053 4.392 10.884 2.87067 10.3133C2.52137 10.1845 2.16684 10.0704 1.808 9.97133C1.79573 9.96819 1.7837 9.96418 1.772 9.95933L1.74267 9.948L1.714 9.93467C1.70288 9.9303 1.69217 9.92495 1.682 9.91867L1.658 9.90533C1.64687 9.89943 1.63618 9.89275 1.626 9.88533L1.60467 9.86933L1.57533 9.84667L1.55333 9.82733L1.52867 9.80467L1.506 9.78L1.486 9.758L1.464 9.72867L1.44867 9.70733C1.44125 9.69715 1.43457 9.68646 1.42867 9.67533L1.41467 9.65133C1.40839 9.64117 1.40303 9.63046 1.39867 9.61933L1.38533 9.59067L1.374 9.56133C1.36915 9.54963 1.36514 9.5376 1.362 9.52533C1.35891 9.51691 1.35668 9.5082 1.35533 9.49933C1.35123 9.48648 1.34811 9.47333 1.346 9.46L1.34133 9.43333L1.33667 9.396L1.33467 9.36667L1.33333 9.33333V9.3C1.33333 9.28978 1.33422 9.28 1.336 9.27067C1.33644 9.25733 1.338 9.24467 1.34067 9.23267L1.34533 9.206C1.34745 9.18878 1.35125 9.17181 1.35667 9.15533L1.36133 9.14133C1.36447 9.12906 1.36848 9.11703 1.37333 9.10533L1.38467 9.076L1.398 9.04733C1.40237 9.03621 1.40772 9.0255 1.414 9.01533L1.42733 8.99133C1.43324 8.98021 1.43992 8.96951 1.44733 8.95933L1.46333 8.938L1.486 8.90867L1.50533 8.88667L1.528 8.862L1.55267 8.83933L1.57467 8.81933L1.604 8.79733L1.62533 8.782C1.63551 8.77459 1.64621 8.7679 1.65733 8.762L1.68133 8.748C1.6915 8.74172 1.70221 8.73637 1.71333 8.732L1.742 8.71867L1.77133 8.70733C1.78303 8.70248 1.79506 8.69847 1.80733 8.69533L1.82133 8.69067C2.17424 8.59307 2.52298 8.48097 2.86667 8.35467C4.39133 7.78267 5.11667 7.06133 5.686 5.544C5.81348 5.19818 5.92581 4.84695 6.02267 4.49133C6.20133 3.836 7.13067 3.836 7.30933 4.49133" fill="var(--fill-0, #18181B)"/>
</g>
<defs>
<clipPath id="clip0_0_56">
<rect width="16" height="16" fill="white"/>
</clipPath>
</defs>
</svg>
