<svg preserveAspectRatio="none" width="100%" height="100%" overflow="visible" style="display: block;" viewBox="0 0 31 20" fill="none" xmlns="http://www.w3.org/2000/svg">
<g id="Vector">
<path d="M0.520855 0.351533H4.89603V3.28922H3.85432V8.4834H4.89603V11.4211H0.854202V3.09764H0L0.520855 0.351533ZM1.45839 15.1464V12.2087H12.938V20H9.79207V15.1464H1.45839ZM5.31272 11.4211V0.351533H9.37539V3.28922H8.31284V8.4834H9.37539V11.4211H5.31272ZM9.79207 11.5488V0.223808H12.938V4.37489H14.1047V7.31258H12.938V11.5488H9.79207Z" fill="#18181B"/>
<path d="M17.9264 17.5945H26.5309V20H14.8012V14.8697H23.4057V14.2949H14.8012V11.8894H19.0931V10.825H14.6762V8.16409H26.6559V10.825H22.239V11.8894H26.5309V16.9984H17.9264V17.5945ZM14.8012 7.56803V4.77936H16.4888V3.01248H14.8012V0.223808H26.5309V3.01248H24.8433V4.77936H26.5309V7.56803H14.8012ZM19.6139 4.77936H21.7182V3.01248H19.6139V4.77936Z" fill="#18181B"/>
<path d="M31 1.55342C31 2.41135 30.3193 3.10684 29.4797 3.10684C28.64 3.10684 27.9593 2.41135 27.9593 1.55342C27.9593 0.69549 28.64 0 29.4797 0C30.3193 0 31 0.69549 31 1.55342Z" fill="var(--fill-0, #18181B)"/>
</g>
</svg>
