<svg preserveAspectRatio="none" width="100%" height="100%" overflow="visible" style="display: block;" viewBox="0 0 16 16" fill="none" xmlns="http://www.w3.org/2000/svg">
<g id="file-star 1" clip-path="url(#clip0_0_23)">
<g id="Vector">
</g>
<path id="Vector_2" d="M7.99544 1.51416L8.07344 1.51883C8.22225 1.53638 8.36081 1.60355 8.46677 1.7095C8.57272 1.81546 8.63989 1.95402 8.65744 2.10283L8.66211 2.18083V4.84749L8.66544 4.94749C8.6893 5.26494 8.82595 5.56338 9.05068 5.78885C9.27542 6.01432 9.57341 6.15194 9.89078 6.17683L9.99544 6.18083H12.6621L12.7401 6.18549C12.8889 6.20304 13.0275 6.27021 13.1334 6.37617C13.2394 6.48212 13.3066 6.62068 13.3241 6.76949L13.3288 6.84749V12.8475C13.3288 13.3576 13.1339 13.8485 12.7839 14.2197C12.4339 14.5908 11.9554 14.8142 11.4461 14.8442L11.3288 14.8475H4.66211C4.15197 14.8475 3.6611 14.6526 3.28994 14.3026C2.91877 13.9527 2.69537 13.4741 2.66544 12.9648L2.66211 12.8475V3.51416C2.66208 3.00402 2.85699 2.51315 3.20697 2.14199C3.55694 1.77082 4.03551 1.54742 4.54478 1.51749L4.66211 1.51416H7.99544ZM7.86211 7.51416C7.81348 7.51398 7.76577 7.52744 7.72441 7.55301C7.68304 7.57858 7.64968 7.61524 7.62811 7.65883L6.90411 9.12083L5.28544 9.35549C5.23727 9.36216 5.19195 9.38225 5.15465 9.41344C5.11735 9.44464 5.08957 9.4857 5.07448 9.53192C5.0594 9.57815 5.05762 9.62769 5.06934 9.67489C5.08106 9.72208 5.10581 9.76503 5.14078 9.79883L6.31211 10.9368L6.03544 12.5442C6.02775 12.592 6.0335 12.641 6.05205 12.6858C6.0706 12.7305 6.10122 12.7692 6.1405 12.7976C6.17978 12.8259 6.22617 12.8428 6.27448 12.8463C6.3228 12.8498 6.37114 12.8399 6.41411 12.8175L7.86211 12.0588L9.31011 12.8175C9.35307 12.8403 9.40155 12.8505 9.45005 12.8472C9.49855 12.8438 9.54514 12.8268 9.5845 12.7983C9.62387 12.7698 9.65445 12.7308 9.67276 12.6857C9.69107 12.6407 9.69639 12.5914 9.68811 12.5435L9.41211 10.9368L10.5834 9.79883C10.6182 9.76492 10.6427 9.72198 10.6543 9.67486C10.6658 9.62773 10.664 9.57832 10.6489 9.53219C10.6339 9.48606 10.6062 9.44506 10.5691 9.41384C10.5319 9.38261 10.4868 9.3624 10.4388 9.35549L8.82011 9.12083L8.09611 7.65883C8.07454 7.61524 8.04117 7.57858 7.99981 7.55301C7.95845 7.52744 7.91074 7.51398 7.86211 7.51416Z" fill="var(--fill-0, #18181B)"/>
<path id="Vector_3" d="M12.6666 4.66706H9.99989L9.99923 1.99973L12.6666 4.66706Z" fill="var(--fill-0, #18181B)"/>
</g>
<defs>
<clipPath id="clip0_0_23">
<rect width="16" height="16" fill="white"/>
</clipPath>
</defs>
</svg>
