<svg width="20" height="20" viewBox="0 0 20 20" fill="none" xmlns="http://www.w3.org/2000/svg">
<rect width="20" height="20" fill="#F5F5F5"/>
<g id="2&#236;&#176;&#168; &#234;&#176;&#156;&#236;&#132;&#160;&#236;&#149;&#136;_&#236;&#181;&#156;&#236;&#162;&#133; &#236;&#153;&#128;&#236;&#157;&#180;&#236;&#150;&#180;&#237;&#148;&#132;&#235;&#160;&#136;&#236;&#158;&#132;">
<path d="M-1923 -324C-1923 -325.104 -1922.1 -326 -1921 -326H8973C8974.1 -326 8975 -325.105 8975 -324V8133C8975 8134.1 8974.1 8135 8973 8135H-1921C-1922.1 8135 -1923 8134.1 -1923 8133V-324Z" fill="white"/>
<path d="M-1921 -326V-325H8973V-326V-327H-1921V-326ZM8975 -324H8974V8133H8975H8976V-324H8975ZM8973 8135V8134H-1921V8135V8136H8973V8135ZM-1923 8133H-1922V-324H-1923H-1924V8133H-1923ZM-1921 8135V8134C-1921.55 8134 -1922 8133.55 -1922 8133H-1923H-1924C-1924 8134.66 -1922.66 8136 -1921 8136V8135ZM8975 8133H8974C8974 8133.55 8973.55 8134 8973 8134V8135V8136C8974.66 8136 8976 8134.66 8976 8133H8975ZM8973 -326V-325C8973.55 -325 8974 -324.552 8974 -324H8975H8976C8976 -325.657 8974.66 -327 8973 -327V-326ZM-1921 -326V-327C-1922.66 -327 -1924 -325.657 -1924 -324H-1923H-1922C-1922 -324.552 -1921.55 -325 -1921 -325V-326Z" fill="black" fill-opacity="0.1"/>
<g id="&#235;&#167;&#136;&#236;&#138;&#164;&#237;&#132;&#176; &#236;&#187;&#180;&#237;&#143;&#172;&#235;&#132;&#140;&#237;&#138;&#184;">
<path d="M-1811 -267C-1811 -268.105 -1810.1 -269 -1809 -269H750C751.104 -269 752 -268.105 752 -267V592C752 593.105 751.104 594 750 594H-1809C-1810.1 594 -1811 593.105 -1811 592V-267Z" fill="white"/>
<g id="&#236;&#149;&#132;&#236;&#157;&#180;&#236;&#189;&#152; &#236;&#187;&#180;&#237;&#143;&#172;&#235;&#132;&#140;&#237;&#138;&#184;">
<path d="M-100 -105C-100 -106.105 -99.1046 -107 -98 -107H75C76.1046 -107 77 -106.105 77 -105V86C77 87.1046 76.1046 88 75 88H-98C-99.1046 88 -100 87.1046 -100 86V-105Z" fill="white"/>
<path d="M-98 -107V-106H75V-107V-108H-98V-107ZM77 -105H76V86H77H78V-105H77ZM75 88V87H-98V88V89H75V88ZM-100 86H-99V-105H-100H-101V86H-100ZM-98 88V87C-98.5523 87 -99 86.5523 -99 86H-100H-101C-101 87.6569 -99.6569 89 -98 89V88ZM77 86H76C76 86.5523 75.5523 87 75 87V88V89C76.6569 89 78 87.6569 78 86H77ZM75 -107V-106C75.5523 -106 76 -105.552 76 -105H77H78C78 -106.657 76.6569 -108 75 -108V-107ZM-98 -107V-108C-99.6569 -108 -101 -106.657 -101 -105H-100H-99C-99 -105.552 -98.5523 -106 -98 -106V-107Z" fill="black" fill-opacity="0.1"/>
<g id="Close" clip-path="url(#clip0_154_421)">
<path id="Vector" d="M15.2496 4.75843C14.9246 4.43343 14.3996 4.43343 14.0746 4.75843L9.99961 8.8251L5.92461 4.7501C5.59961 4.4251 5.07461 4.4251 4.74961 4.7501C4.42461 5.0751 4.42461 5.6001 4.74961 5.9251L8.82461 10.0001L4.74961 14.0751C4.42461 14.4001 4.42461 14.9251 4.74961 15.2501C5.07461 15.5751 5.59961 15.5751 5.92461 15.2501L9.99961 11.1751L14.0746 15.2501C14.3996 15.5751 14.9246 15.5751 15.2496 15.2501C15.5746 14.9251 15.5746 14.4001 15.2496 14.0751L11.1746 10.0001L15.2496 5.9251C15.5663 5.60843 15.5663 5.0751 15.2496 4.75843Z" fill="#18181B"/>
</g>
</g>
</g>
</g>
<defs>
<clipPath id="clip0_154_421">
<rect width="20" height="20" fill="white"/>
</clipPath>
</defs>
</svg>
