<svg preserveAspectRatio="none" width="100%" height="100%" overflow="visible" style="display: block;" viewBox="0 0 38 38" fill="none" xmlns="http://www.w3.org/2000/svg">
<g id="exclamation-circle 2">
<g id="Vector">
</g>
<path id="Vector_2" d="M26.9167 5.28833C29.3237 6.67801 31.3224 8.67679 32.7121 11.0838C34.1018 13.4908 34.8333 16.2212 34.8333 19.0005C34.8333 21.7798 34.1017 24.5102 32.712 26.9172C31.3223 29.3242 29.3235 31.3229 26.9165 32.7126C24.5095 34.1022 21.7791 34.8338 18.9997 34.8337C16.2204 34.8337 13.49 34.102 11.0831 32.7123C8.67611 31.3226 6.67738 29.3238 5.28776 26.9168C3.89814 24.5097 3.1666 21.7793 3.16667 19L3.17458 18.487C3.26326 15.7526 4.05895 13.0878 5.4841 10.7524C6.90924 8.41704 8.9152 6.4908 11.3064 5.16148C13.6976 3.83216 16.3925 3.14513 19.1283 3.16736C21.864 3.18959 24.5474 3.92033 26.9167 5.28833ZM19 23.75C18.5801 23.75 18.1773 23.9168 17.8804 24.2137C17.5835 24.5107 17.4167 24.9134 17.4167 25.3333V25.3492C17.4167 25.7691 17.5835 26.1718 17.8804 26.4687C18.1773 26.7657 18.5801 26.9325 19 26.9325C19.4199 26.9325 19.8227 26.7657 20.1196 26.4687C20.4165 26.1718 20.5833 25.7691 20.5833 25.3492V25.3333C20.5833 24.9134 20.4165 24.5107 20.1196 24.2137C19.8227 23.9168 19.4199 23.75 19 23.75ZM19 12.6667C18.5801 12.6667 18.1773 12.8335 17.8804 13.1304C17.5835 13.4273 17.4167 13.8301 17.4167 14.25V20.5833C17.4167 21.0033 17.5835 21.406 17.8804 21.7029C18.1773 21.9999 18.5801 22.1667 19 22.1667C19.4199 22.1667 19.8227 21.9999 20.1196 21.7029C20.4165 21.406 20.5833 21.0033 20.5833 20.5833V14.25C20.5833 13.8301 20.4165 13.4273 20.1196 13.1304C19.8227 12.8335 19.4199 12.6667 19 12.6667Z" fill="var(--fill-0, #F25252)"/>
</g>
</svg>
