<svg preserveAspectRatio="none" width="100%" height="100%" overflow="visible" style="display: block;" viewBox="0 0 16 16" fill="none" xmlns="http://www.w3.org/2000/svg">
<g id="user 2" clip-path="url(#clip0_0_43)">
<g id="Vector">
</g>
<path id="Vector_2" d="M8 1.33333C8.65927 1.33333 9.30374 1.52883 9.8519 1.8951C10.4001 2.26137 10.8273 2.78197 11.0796 3.39105C11.3319 4.00014 11.3979 4.67036 11.2693 5.31697C11.1407 5.96357 10.8232 6.55751 10.357 7.02369C9.89085 7.48986 9.2969 7.80733 8.6503 7.93595C8.0037 8.06457 7.33348 7.99856 6.72439 7.74626C6.1153 7.49397 5.59471 7.06673 5.22843 6.51857C4.86216 5.9704 4.66667 5.32594 4.66667 4.66667L4.67 4.522C4.70728 3.66383 5.07441 2.85319 5.69482 2.25911C6.31523 1.66503 7.14102 1.33338 8 1.33333Z" fill="var(--fill-0, #18181B)"/>
<path id="Vector_3" d="M9.33333 9.33333C10.2174 9.33333 11.0652 9.68452 11.6904 10.3096C12.3155 10.9348 12.6667 11.7826 12.6667 12.6667V13.3333C12.6667 13.687 12.5262 14.0261 12.2761 14.2761C12.0261 14.5262 11.687 14.6667 11.3333 14.6667H4.66667C4.31304 14.6667 3.97391 14.5262 3.72386 14.2761C3.47381 14.0261 3.33333 13.687 3.33333 13.3333V12.6667C3.33333 11.7826 3.68452 10.9348 4.30964 10.3096C4.93477 9.68452 5.78261 9.33333 6.66667 9.33333H9.33333Z" fill="var(--fill-0, #18181B)"/>
</g>
<defs>
<clipPath id="clip0_0_43">
<rect width="16" height="16" fill="white"/>
</clipPath>
</defs>
</svg>
