<svg preserveAspectRatio="none" width="100%" height="100%" overflow="visible" style="display: block;" viewBox="0 0 43 43" fill="none" xmlns="http://www.w3.org/2000/svg">
<g id="Time_atack_light">
<path id="Ellipse 54" d="M21.5 11.47C21.5 11.2195 21.5 11.0942 21.5532 10.9947C21.5981 10.9109 21.6781 10.8361 21.7647 10.797C21.8675 10.7505 21.9849 10.7584 22.2195 10.7741C23.856 10.8839 25.4491 11.367 26.875 12.1902C28.5092 13.1337 29.8663 14.4908 30.8098 16.125C31.7533 17.7592 32.25 19.613 32.25 21.5C32.25 23.387 31.7533 25.2408 30.8098 26.875C29.8663 28.5092 28.5092 29.8663 26.875 30.8098C25.2408 31.7533 23.387 32.25 21.5 32.25C19.613 32.25 17.7592 31.7533 16.125 30.8098C14.6991 29.9865 13.4841 28.8484 12.5708 27.486C12.4399 27.2907 12.3744 27.1931 12.3632 27.0808C12.3538 26.9862 12.3786 26.8795 12.4288 26.7987C12.4883 26.7029 12.5968 26.6403 12.8138 26.515L21.14 21.7078C21.2711 21.6321 21.3367 21.5943 21.3844 21.5413C21.4266 21.4944 21.4585 21.4392 21.478 21.3793C21.5 21.3115 21.5 21.2357 21.5 21.0843L21.5 11.47Z" fill="var(--fill-0, #19B469)"/>
<circle id="Ellipse 55" cx="21.5" cy="21.5" r="15.0833" stroke="var(--stroke-0, #19B469)" stroke-width="1.5"/>
</g>
</svg>
