<svg preserveAspectRatio="none" width="100%" height="100%" overflow="visible" style="display: block;" viewBox="0 0 16 16" fill="none" xmlns="http://www.w3.org/2000/svg">
<g id="pin 1" clip-path="url(#clip0_0_29)">
<g id="Vector">
</g>
<path id="Vector_2" d="M10.0753 2.14L10.138 2.19533L13.8047 5.862C13.9171 5.97498 13.9852 6.12449 13.9969 6.28342C14.0085 6.44235 13.9629 6.6002 13.8682 6.72836C13.7735 6.85652 13.636 6.94652 13.4806 6.98204C13.3253 7.01756 13.1623 6.99626 13.0213 6.922L10.9067 9.036L9.95733 11.5673C9.93233 11.6341 9.89676 11.6965 9.852 11.752L9.80533 11.8053L8.80533 12.8053C8.69045 12.92 8.53768 12.9888 8.37566 12.9989C8.21365 13.009 8.05352 12.9596 7.92533 12.86L7.862 12.8047L6 10.9433L3.47133 13.4713C3.35136 13.5909 3.19038 13.6603 3.02108 13.6655C2.85178 13.6707 2.68686 13.6112 2.55981 13.4992C2.43277 13.3871 2.35313 13.231 2.33707 13.0623C2.32101 12.8937 2.36973 12.7253 2.47333 12.5913L2.52867 12.5287L5.05667 10L3.19533 8.138C3.08055 8.0232 3.01159 7.87047 3.00141 7.70845C2.99122 7.54644 3.0405 7.38627 3.14 7.258L3.19533 7.19533L4.19533 6.19533C4.24564 6.14485 4.30371 6.10276 4.36733 6.07067L4.43267 6.04267L6.96333 5.09267L9.07733 2.97933C9.00525 2.84455 8.98166 2.6891 9.01053 2.539C9.0394 2.38891 9.11896 2.25329 9.2359 2.15486C9.35284 2.05644 9.50004 2.00119 9.65286 1.99836C9.80568 1.99553 9.95484 2.04597 10.0753 2.14Z" fill="var(--fill-0, #18181B)"/>
</g>
<defs>
<clipPath id="clip0_0_29">
<rect width="16" height="16" fill="white"/>
</clipPath>
</defs>
</svg>
