<svg width="20" height="20" viewBox="0 0 20 20" fill="none" xmlns="http://www.w3.org/2000/svg">
<rect width="20" height="20" fill="#F5F5F5"/>
<g id="2&#236;&#176;&#168; &#234;&#176;&#156;&#236;&#132;&#160;&#236;&#149;&#136;_&#236;&#181;&#156;&#236;&#162;&#133; &#236;&#153;&#128;&#236;&#157;&#180;&#236;&#150;&#180;&#237;&#148;&#132;&#235;&#160;&#136;&#236;&#158;&#132;">
<path d="M-1846 -290C-1846 -291.104 -1845.1 -292 -1844 -292H9050C9051.1 -292 9052 -291.105 9052 -290V8167C9052 8168.1 9051.1 8169 9050 8169H-1844C-1845.1 8169 -1846 8168.1 -1846 8167V-290Z" fill="white"/>
<path d="M-1844 -292V-291H9050V-292V-293H-1844V-292ZM9052 -290H9051V8167H9052H9053V-290H9052ZM9050 8169V8168H-1844V8169V8170H9050V8169ZM-1846 8167H-1845V-290H-1846H-1847V8167H-1846ZM-1844 8169V8168C-1844.55 8168 -1845 8167.55 -1845 8167H-1846H-1847C-1847 8168.66 -1845.66 8170 -1844 8170V8169ZM9052 8167H9051C9051 8167.55 9050.55 8168 9050 8168V8169V8170C9051.66 8170 9053 8168.66 9053 8167H9052ZM9050 -292V-291C9050.55 -291 9051 -290.552 9051 -290H9052H9053C9053 -291.657 9051.66 -293 9050 -293V-292ZM-1844 -292V-293C-1845.66 -293 -1847 -291.657 -1847 -290H-1846H-1845C-1845 -290.552 -1844.55 -291 -1844 -291V-292Z" fill="black" fill-opacity="0.1"/>
<g id="&#235;&#167;&#136;&#236;&#138;&#164;&#237;&#132;&#176; &#236;&#187;&#180;&#237;&#143;&#172;&#235;&#132;&#140;&#237;&#138;&#184;">
<path d="M-1734 -233C-1734 -234.105 -1733.1 -235 -1732 -235H827C828.104 -235 829 -234.105 829 -233V626C829 627.105 828.104 628 827 628H-1732C-1733.1 628 -1734 627.105 -1734 626V-233Z" fill="white"/>
<g id="&#236;&#149;&#132;&#236;&#157;&#180;&#236;&#189;&#152; &#236;&#187;&#180;&#237;&#143;&#172;&#235;&#132;&#140;&#237;&#138;&#184;">
<path d="M-23 -71C-23 -72.1046 -22.1046 -73 -21 -73H152C153.105 -73 154 -72.1046 154 -71V120C154 121.105 153.105 122 152 122H-21C-22.1046 122 -23 121.105 -23 120V-71Z" fill="white"/>
<path d="M-21 -73V-72H152V-73V-74H-21V-73ZM154 -71H153V120H154H155V-71H154ZM152 122V121H-21V122V123H152V122ZM-23 120H-22V-71H-23H-24V120H-23ZM-21 122V121C-21.5523 121 -22 120.552 -22 120H-23H-24C-24 121.657 -22.6569 123 -21 123V122ZM154 120H153C153 120.552 152.552 121 152 121V122V123C153.657 123 155 121.657 155 120H154ZM152 -73V-72C152.552 -72 153 -71.5523 153 -71H154H155C155 -72.6569 153.657 -74 152 -74V-73ZM-21 -73V-74C-22.6569 -74 -24 -72.6569 -24 -71H-23H-22C-22 -71.5523 -21.5523 -72 -21 -72V-73Z" fill="black" fill-opacity="0.1"/>
<g id="&#237;&#143;&#180;&#235;&#141;&#148; &#236;&#149;&#132;&#236;&#157;&#180;&#236;&#189;&#152;" clip-path="url(#clip0_154_421)">
<path id="Vector" d="M8.82533 3.82516C8.50866 3.5085 8.08366 3.3335 7.64199 3.3335H3.33366C2.41699 3.3335 1.67533 4.0835 1.67533 5.00016L1.66699 15.0002C1.66699 15.9168 2.41699 16.6668 3.33366 16.6668H16.667C17.5837 16.6668 18.3337 15.9168 18.3337 15.0002V6.66683C18.3337 5.75016 17.5837 5.00016 16.667 5.00016H10.0003L8.82533 3.82516Z" fill="#18181B"/>
</g>
</g>
</g>
</g>
<defs>
<clipPath id="clip0_154_421">
<rect width="20" height="20" fill="white"/>
</clipPath>
</defs>
</svg>
