<svg preserveAspectRatio="none" width="100%" height="100%" overflow="visible" style="display: block;" viewBox="0 0 16 16" fill="none" xmlns="http://www.w3.org/2000/svg">
<g id="writing 1" clip-path="url(#clip0_0_7)">
<g id="Vector">
</g>
<path id="Vector_2" d="M14 5.33333V11.3333C14 11.5101 13.9297 11.6797 13.8047 11.8047L12.4713 13.138C12.4481 13.1614 12.4231 13.183 12.3967 13.2027L12.3233 13.25L12.2473 13.286L12.1773 13.3093L12.078 13.3293L12 13.3333H3.33333C2.8029 13.3333 2.29419 13.1226 1.91912 12.7475C1.54405 12.3725 1.33333 11.8638 1.33333 11.3333C1.33333 10.8029 1.54405 10.2942 1.91912 9.91912C2.29419 9.54405 2.8029 9.33333 3.33333 9.33333H6C6.17681 9.33333 6.34638 9.2631 6.4714 9.13807C6.59643 9.01305 6.66667 8.84348 6.66667 8.66667C6.66667 8.48986 6.59643 8.32029 6.4714 8.19526C6.34638 8.07024 6.17681 8 6 8H4C3.82319 8 3.65362 7.92976 3.5286 7.80474C3.40357 7.67971 3.33333 7.51014 3.33333 7.33333C3.33333 7.15652 3.40357 6.98695 3.5286 6.86193C3.65362 6.7369 3.82319 6.66667 4 6.66667H6C6.53043 6.66667 7.03914 6.87738 7.41421 7.25245C7.78929 7.62753 8 8.13623 8 8.66667C8 9.1971 7.78929 9.70581 7.41421 10.0809C7.03914 10.456 6.53043 10.6667 6 10.6667H3.33333C3.15652 10.6667 2.98695 10.7369 2.86193 10.8619C2.7369 10.987 2.66667 11.1565 2.66667 11.3333C2.66667 11.5101 2.7369 11.6797 2.86193 11.8047C2.98695 11.9298 3.15652 12 3.33333 12H10.39L10.1953 11.8047C10.0703 11.6797 10 11.5101 10 11.3333V5.33333H14ZM12 1.33333C13.1153 1.33333 14 2.218 14 3.33333V4H10V3.33333C10 2.218 10.8847 1.33333 12 1.33333Z" fill="var(--fill-0, #18181B)"/>
</g>
<defs>
<clipPath id="clip0_0_7">
<rect width="16" height="16" fill="white"/>
</clipPath>
</defs>
</svg>
