<svg width="20" height="20" viewBox="0 0 20 20" fill="none" xmlns="http://www.w3.org/2000/svg">
<rect width="20" height="20" fill="#F5F5F5"/>
<g id="2&#236;&#176;&#168; &#234;&#176;&#156;&#236;&#132;&#160;&#236;&#149;&#136;_&#236;&#181;&#156;&#236;&#162;&#133; &#236;&#153;&#128;&#236;&#157;&#180;&#236;&#150;&#180;&#237;&#148;&#132;&#235;&#160;&#136;&#236;&#158;&#132;">
<path d="M-1957 -326C-1957 -327.104 -1956.1 -328 -1955 -328H8939C8940.1 -328 8941 -327.105 8941 -326V8131C8941 8132.1 8940.1 8133 8939 8133H-1955C-1956.1 8133 -1957 8132.1 -1957 8131V-326Z" fill="white"/>
<path d="M-1955 -328V-327H8939V-328V-329H-1955V-328ZM8941 -326H8940V8131H8941H8942V-326H8941ZM8939 8133V8132H-1955V8133V8134H8939V8133ZM-1957 8131H-1956V-326H-1957H-1958V8131H-1957ZM-1955 8133V8132C-1955.55 8132 -1956 8131.55 -1956 8131H-1957H-1958C-1958 8132.66 -1956.66 8134 -1955 8134V8133ZM8941 8131H8940C8940 8131.55 8939.55 8132 8939 8132V8133V8134C8940.66 8134 8942 8132.66 8942 8131H8941ZM8939 -328V-327C8939.55 -327 8940 -326.552 8940 -326H8941H8942C8942 -327.657 8940.66 -329 8939 -329V-328ZM-1955 -328V-329C-1956.66 -329 -1958 -327.657 -1958 -326H-1957H-1956C-1956 -326.552 -1955.55 -327 -1955 -327V-328Z" fill="black" fill-opacity="0.1"/>
<g id="&#235;&#167;&#136;&#236;&#138;&#164;&#237;&#132;&#176; &#236;&#187;&#180;&#237;&#143;&#172;&#235;&#132;&#140;&#237;&#138;&#184;">
<path d="M-1845 -269C-1845 -270.105 -1844.1 -271 -1843 -271H716C717.104 -271 718 -270.105 718 -269V590C718 591.105 717.104 592 716 592H-1843C-1844.1 592 -1845 591.105 -1845 590V-269Z" fill="white"/>
<g id="&#236;&#149;&#132;&#236;&#157;&#180;&#236;&#189;&#152; &#236;&#187;&#180;&#237;&#143;&#172;&#235;&#132;&#140;&#237;&#138;&#184;">
<path d="M-134 -107C-134 -108.105 -133.105 -109 -132 -109H41C42.1046 -109 43 -108.105 43 -107V84C43 85.1046 42.1046 86 41 86H-132C-133.105 86 -134 85.1046 -134 84V-107Z" fill="white"/>
<path d="M-132 -109V-108H41V-109V-110H-132V-109ZM43 -107H42V84H43H44V-107H43ZM41 86V85H-132V86V87H41V86ZM-134 84H-133V-107H-134H-135V84H-134ZM-132 86V85C-132.552 85 -133 84.5523 -133 84H-134H-135C-135 85.6569 -133.657 87 -132 87V86ZM43 84H42C42 84.5523 41.5523 85 41 85V86V87C42.6569 87 44 85.6569 44 84H43ZM41 -109V-108C41.5523 -108 42 -107.552 42 -107H43H44C44 -108.657 42.6569 -110 41 -110V-109ZM-132 -109V-110C-133.657 -110 -135 -108.657 -135 -107H-134H-133C-133 -107.552 -132.552 -108 -132 -108V-109Z" fill="black" fill-opacity="0.1"/>
<g id="Bookmark">
<path id="Vector" d="M14.167 2.5H5.83366C4.91699 2.5 4.17533 3.25 4.17533 4.16667L4.16699 17.5L10.0003 15L15.8337 17.5V4.16667C15.8337 3.25 15.0837 2.5 14.167 2.5Z" fill="#18181B"/>
</g>
</g>
</g>
</g>
</svg>
