<svg width="20" height="20" viewBox="0 0 20 20" fill="none" xmlns="http://www.w3.org/2000/svg">
<rect width="20" height="20" fill="#F5F5F5"/>
<g id="2&#236;&#176;&#168; &#234;&#176;&#156;&#236;&#132;&#160;&#236;&#149;&#136;_&#236;&#181;&#156;&#236;&#162;&#133; &#236;&#153;&#128;&#236;&#157;&#180;&#236;&#150;&#180;&#237;&#148;&#132;&#235;&#160;&#136;&#236;&#158;&#132;">
<path d="M-1957 -249C-1957 -250.104 -1956.1 -251 -1955 -251H8939C8940.1 -251 8941 -250.105 8941 -249V8208C8941 8209.1 8940.1 8210 8939 8210H-1955C-1956.1 8210 -1957 8209.1 -1957 8208V-249Z" fill="white"/>
<path d="M-1955 -251V-250H8939V-251V-252H-1955V-251ZM8941 -249H8940V8208H8941H8942V-249H8941ZM8939 8210V8209H-1955V8210V8211H8939V8210ZM-1957 8208H-1956V-249H-1957H-1958V8208H-1957ZM-1955 8210V8209C-1955.55 8209 -1956 8208.55 -1956 8208H-1957H-1958C-1958 8209.66 -1956.66 8211 -1955 8211V8210ZM8941 8208H8940C8940 8208.55 8939.55 8209 8939 8209V8210V8211C8940.66 8211 8942 8209.66 8942 8208H8941ZM8939 -251V-250C8939.55 -250 8940 -249.552 8940 -249H8941H8942C8942 -250.657 8940.66 -252 8939 -252V-251ZM-1955 -251V-252C-1956.66 -252 -1958 -250.657 -1958 -249H-1957H-1956C-1956 -249.552 -1955.55 -250 -1955 -250V-251Z" fill="black" fill-opacity="0.1"/>
<g id="&#235;&#167;&#136;&#236;&#138;&#164;&#237;&#132;&#176; &#236;&#187;&#180;&#237;&#143;&#172;&#235;&#132;&#140;&#237;&#138;&#184;">
<path d="M-1845 -192C-1845 -193.105 -1844.1 -194 -1843 -194H716C717.104 -194 718 -193.105 718 -192V667C718 668.105 717.104 669 716 669H-1843C-1844.1 669 -1845 668.105 -1845 667V-192Z" fill="white"/>
<g id="&#236;&#149;&#132;&#236;&#157;&#180;&#236;&#189;&#152; &#236;&#187;&#180;&#237;&#143;&#172;&#235;&#132;&#140;&#237;&#138;&#184;">
<path d="M-134 -30C-134 -31.1046 -133.105 -32 -132 -32H41C42.1046 -32 43 -31.1046 43 -30V161C43 162.105 42.1046 163 41 163H-132C-133.105 163 -134 162.105 -134 161V-30Z" fill="white"/>
<path d="M-132 -32V-31H41V-32V-33H-132V-32ZM43 -30H42V161H43H44V-30H43ZM41 163V162H-132V163V164H41V163ZM-134 161H-133V-30H-134H-135V161H-134ZM-132 163V162C-132.552 162 -133 161.552 -133 161H-134H-135C-135 162.657 -133.657 164 -132 164V163ZM43 161H42C42 161.552 41.5523 162 41 162V163V164C42.6569 164 44 162.657 44 161H43ZM41 -32V-31C41.5523 -31 42 -30.5523 42 -30H43H44C44 -31.6569 42.6569 -33 41 -33V-32ZM-132 -32V-33C-133.657 -33 -135 -31.6569 -135 -30H-134H-133C-133 -30.5523 -132.552 -31 -132 -31V-32Z" fill="black" fill-opacity="0.1"/>
<g id="Edit">
<path id="Vector" d="M3 17.25H4.4L13.025 8.625L11.625 7.225L3 15.85V17.25ZM17.3 7.175L13.05 2.975L14.45 1.575C14.8333 1.19167 15.3043 1 15.863 1C16.421 1 16.8917 1.19167 17.275 1.575L18.675 2.975C19.0583 3.35833 19.2583 3.821 19.275 4.363C19.2917 4.90433 19.1083 5.36667 18.725 5.75L17.3 7.175ZM2 19.25C1.71667 19.25 1.47933 19.154 1.288 18.962C1.096 18.7707 1 18.5333 1 18.25V15.425C1 15.2917 1.025 15.1627 1.075 15.038C1.125 14.9127 1.2 14.8 1.3 14.7L11.6 4.4L15.85 8.65L5.55 18.95C5.45 19.05 5.33767 19.125 5.213 19.175C5.08767 19.225 4.95833 19.25 4.825 19.25H2ZM12.325 7.925L11.625 7.225L13.025 8.625L12.325 7.925Z" fill="#18181B"/>
</g>
</g>
</g>
</g>
</svg>
