<svg width="20" height="20" viewBox="0 0 20 20" fill="none" xmlns="http://www.w3.org/2000/svg">
<rect width="20" height="20" fill="#F5F5F5"/>
<g id="2&#236;&#176;&#168; &#234;&#176;&#156;&#236;&#132;&#160;&#236;&#149;&#136;_&#236;&#181;&#156;&#236;&#162;&#133; &#236;&#153;&#128;&#236;&#157;&#180;&#236;&#150;&#180;&#237;&#148;&#132;&#235;&#160;&#136;&#236;&#158;&#132;">
<path d="M-1923 -288C-1923 -289.104 -1922.1 -290 -1921 -290H8973C8974.1 -290 8975 -289.105 8975 -288V8169C8975 8170.1 8974.1 8171 8973 8171H-1921C-1922.1 8171 -1923 8170.1 -1923 8169V-288Z" fill="white"/>
<path d="M-1921 -290V-289H8973V-290V-291H-1921V-290ZM8975 -288H8974V8169H8975H8976V-288H8975ZM8973 8171V8170H-1921V8171V8172H8973V8171ZM-1923 8169H-1922V-288H-1923H-1924V8169H-1923ZM-1921 8171V8170C-1921.55 8170 -1922 8169.55 -1922 8169H-1923H-1924C-1924 8170.66 -1922.66 8172 -1921 8172V8171ZM8975 8169H8974C8974 8169.55 8973.55 8170 8973 8170V8171V8172C8974.66 8172 8976 8170.66 8976 8169H8975ZM8973 -290V-289C8973.55 -289 8974 -288.552 8974 -288H8975H8976C8976 -289.657 8974.66 -291 8973 -291V-290ZM-1921 -290V-291C-1922.66 -291 -1924 -289.657 -1924 -288H-1923H-1922C-1922 -288.552 -1921.55 -289 -1921 -289V-290Z" fill="black" fill-opacity="0.1"/>
<g id="&#235;&#167;&#136;&#236;&#138;&#164;&#237;&#132;&#176; &#236;&#187;&#180;&#237;&#143;&#172;&#235;&#132;&#140;&#237;&#138;&#184;">
<path d="M-1811 -231C-1811 -232.105 -1810.1 -233 -1809 -233H750C751.104 -233 752 -232.105 752 -231V628C752 629.105 751.104 630 750 630H-1809C-1810.1 630 -1811 629.105 -1811 628V-231Z" fill="white"/>
<g id="&#236;&#149;&#132;&#236;&#157;&#180;&#236;&#189;&#152; &#236;&#187;&#180;&#237;&#143;&#172;&#235;&#132;&#140;&#237;&#138;&#184;">
<path d="M-100 -69C-100 -70.1046 -99.1046 -71 -98 -71H75C76.1046 -71 77 -70.1046 77 -69V122C77 123.105 76.1046 124 75 124H-98C-99.1046 124 -100 123.105 -100 122V-69Z" fill="white"/>
<path d="M-98 -71V-70H75V-71V-72H-98V-71ZM77 -69H76V122H77H78V-69H77ZM75 124V123H-98V124V125H75V124ZM-100 122H-99V-69H-100H-101V122H-100ZM-98 124V123C-98.5523 123 -99 122.552 -99 122H-100H-101C-101 123.657 -99.6569 125 -98 125V124ZM77 122H76C76 122.552 75.5523 123 75 123V124V125C76.6569 125 78 123.657 78 122H77ZM75 -71V-70C75.5523 -70 76 -69.5523 76 -69H77H78C78 -70.6569 76.6569 -72 75 -72V-71ZM-98 -71V-72C-99.6569 -72 -101 -70.6569 -101 -69H-100H-99C-99 -69.5523 -98.5523 -70 -98 -70V-71Z" fill="black" fill-opacity="0.1"/>
<g id="Check" clip-path="url(#clip0_154_421)">
<path id="Vector" d="M7.49987 13.4751L4.6082 10.5834C4.2832 10.2584 3.7582 10.2584 3.4332 10.5834C3.1082 10.9084 3.1082 11.4334 3.4332 11.7584L6.91654 15.2418C7.24154 15.5668 7.76654 15.5668 8.09154 15.2418L16.9082 6.4251C17.2332 6.1001 17.2332 5.5751 16.9082 5.2501C16.5832 4.9251 16.0582 4.9251 15.7332 5.2501L7.49987 13.4751Z" fill="#18181B"/>
</g>
</g>
</g>
</g>
<defs>
<clipPath id="clip0_154_421">
<rect width="20" height="20" fill="white"/>
</clipPath>
</defs>
</svg>
