<svg preserveAspectRatio="none" width="100%" height="100%" overflow="visible" style="display: block;" viewBox="0 0 16 16" fill="none" xmlns="http://www.w3.org/2000/svg">
<g id="briefcase 1" clip-path="url(#clip0_0_47)">
<g id="Vector">
</g>
<path id="Vector_2" d="M14.6667 8.98533V12C14.6667 12.5304 14.456 13.0391 14.0809 13.4142C13.7058 13.7893 13.1971 14 12.6667 14H3.33333C2.8029 14 2.29419 13.7893 1.91912 13.4142C1.54405 13.0391 1.33333 12.5304 1.33333 12V8.98533L1.702 9.17C3.65594 10.1542 5.81335 10.6667 8.00116 10.6665C10.189 10.6663 12.3463 10.1533 14.3 9.16867L14.6667 8.98533ZM9.33333 1.33333C9.86377 1.33333 10.3725 1.54405 10.7475 1.91912C11.1226 2.29419 11.3333 2.8029 11.3333 3.33333V4H12.6667C13.1971 4 13.7058 4.21071 14.0809 4.58579C14.456 4.96086 14.6667 5.46957 14.6667 6V7.49467L13.702 7.97733C11.976 8.84731 10.0738 9.31079 8.14104 9.33228C6.2083 9.35377 4.29626 8.93271 2.55133 8.10133L2.12 7.888L1.33333 7.49467V6C1.33333 5.46957 1.54405 4.96086 1.91912 4.58579C2.29419 4.21071 2.8029 4 3.33333 4H4.66667V3.33333C4.66667 2.8029 4.87738 2.29419 5.25245 1.91912C5.62753 1.54405 6.13623 1.33333 6.66667 1.33333H9.33333ZM8 6.66667C7.82319 6.66667 7.65362 6.7369 7.5286 6.86193C7.40357 6.98695 7.33333 7.15652 7.33333 7.33333C7.3329 7.42088 7.34971 7.50766 7.3828 7.58871C7.4159 7.66976 7.46464 7.7435 7.52624 7.80571C7.58783 7.86793 7.66108 7.9174 7.7418 7.95131C7.82251 7.98522 7.90912 8.0029 7.99667 8.00333C8.08421 8.00377 8.17099 7.98696 8.25204 7.95386C8.33309 7.92076 8.40683 7.87202 8.46905 7.81043C8.53126 7.74883 8.58074 7.67558 8.61464 7.59487C8.64855 7.51415 8.66623 7.42755 8.66667 7.34C8.66667 6.96533 8.368 6.66667 8 6.66667ZM9.33333 2.66667H6.66667C6.48986 2.66667 6.32029 2.7369 6.19526 2.86193C6.07024 2.98695 6 3.15652 6 3.33333V4H10V3.33333C10 3.15652 9.92976 2.98695 9.80474 2.86193C9.67971 2.7369 9.51014 2.66667 9.33333 2.66667Z" fill="var(--fill-0, #18181B)"/>
</g>
<defs>
<clipPath id="clip0_0_47">
<rect width="16" height="16" fill="white"/>
</clipPath>
</defs>
</svg>
